<svg width="65" height="65" viewBox="0 0 65 65" fill="none" xmlns="http://www.w3.org/2000/svg">
<circle cx="32.5" cy="32.5" r="32" stroke="#C2C2C2"/>
<path d="M32.9999 40.6668C36.6818 40.6668 39.6666 37.682 39.6666 34.0002C39.6666 30.3183 36.6818 27.3335 32.9999 27.3335C29.318 27.3335 26.3333 30.3183 26.3333 34.0002C26.3333 37.682 29.318 40.6668 32.9999 40.6668Z" stroke="#333333" stroke-width="3.61995" stroke-linecap="round" stroke-linejoin="round"/>
<path d="M18 40.6667V27.3333C18 22.731 21.731 19 26.3333 19H39.6667C44.269 19 48 22.731 48 27.3333V40.6667C48 45.269 44.269 49 39.6667 49H26.3333C21.731 49 18 45.269 18 40.6667Z" stroke="#333333" stroke-width="3.61995"/>
<path d="M42.1667 24.8494L42.1829 24.8315" stroke="#333333" stroke-width="3.61995" stroke-linecap="round" stroke-linejoin="round"/>
</svg>
