<svg width="65" height="65" viewBox="0 0 65 65" fill="none" xmlns="http://www.w3.org/2000/svg">
<path d="M38.787 26.4004C37.3287 25.0645 35.3863 24.25 33.2571 24.25C28.7189 24.25 25.041 27.9443 25.041 32.5C25.041 37.0556 28.7189 40.75 33.2571 40.75C38.8362 40.75 40.8978 36.5088 41.1229 33.1876H34.4345" stroke="#333333" stroke-width="5.94763"/>
<path d="M33.0819 49C41.9636 49 49.1638 41.6126 49.1638 32.5C49.1638 23.3873 41.9636 16 33.0819 16C24.2001 16 17 23.3873 17 32.5C17 41.6126 24.2001 49 33.0819 49Z" stroke="#333333" stroke-width="5.94763" stroke-linecap="round" stroke-linejoin="round"/>
<path d="M64.5 32.5C64.5 50.1731 50.1731 64.5 32.5 64.5C14.8269 64.5 0.5 50.1731 0.5 32.5C0.5 14.8269 14.8269 0.5 32.5 0.5C50.1731 0.5 64.5 14.8269 64.5 32.5Z" stroke="#C2C2C2"/>
</svg>
